<mxfile host="app.diagrams.net" modified="2022-11-28T02:37:13.264Z" agent="5.0 (Windows NT 10.0; Win64; x64) AppleWebKit/537.36 (KHTML, like Gecko) Chrome/103.0.5060.114 Safari/537.36 Edg/103.0.1264.62" etag="v5C_PIVgp0eMgOnFZdPy" version="20.6.0" type="github">
  <diagram id="45gjmZU5WHnOV5znpadK" name="第 1 页">
    <mxGraphModel dx="926" dy="487" grid="1" gridSize="10" guides="1" tooltips="1" connect="1" arrows="1" fold="1" page="0" pageScale="1" pageWidth="827" pageHeight="1169" math="0" shadow="0">
      <root>
        <mxCell id="0" />
        <mxCell id="1" parent="0" />
        <mxCell id="PTadkcQ9bA5JcgTdEHjo-22" value="rdata" style="edgeStyle=orthogonalEdgeStyle;rounded=0;orthogonalLoop=1;jettySize=auto;html=1;" parent="1" edge="1">
          <mxGeometry x="-0.2491" relative="1" as="geometry">
            <Array as="points">
              <mxPoint x="220" y="220" />
              <mxPoint x="220" y="240" />
            </Array>
            <mxPoint x="200" y="220.0344827586207" as="sourcePoint" />
            <mxPoint x="260" y="239.9655172413793" as="targetPoint" />
            <mxPoint as="offset" />
          </mxGeometry>
        </mxCell>
        <mxCell id="PTadkcQ9bA5JcgTdEHjo-1" value="ROM" style="rounded=0;whiteSpace=wrap;html=1;" parent="1" vertex="1">
          <mxGeometry x="160" y="200" width="40" height="40" as="geometry" />
        </mxCell>
        <mxCell id="PTadkcQ9bA5JcgTdEHjo-15" value="[12:1]rgb" style="edgeStyle=orthogonalEdgeStyle;rounded=0;orthogonalLoop=1;jettySize=auto;html=1;exitX=1;exitY=0.5;exitDx=0;exitDy=0;" parent="1" source="PTadkcQ9bA5JcgTdEHjo-2" edge="1">
          <mxGeometry relative="1" as="geometry">
            <mxPoint x="630" y="260" as="targetPoint" />
          </mxGeometry>
        </mxCell>
        <mxCell id="PTadkcQ9bA5JcgTdEHjo-18" value="raddr2" style="edgeStyle=orthogonalEdgeStyle;rounded=0;orthogonalLoop=1;jettySize=auto;html=1;exitX=0;exitY=1;exitDx=0;exitDy=0;" parent="1" source="PTadkcQ9bA5JcgTdEHjo-2" target="PTadkcQ9bA5JcgTdEHjo-46" edge="1">
          <mxGeometry x="0.6294" relative="1" as="geometry">
            <Array as="points">
              <mxPoint x="260" y="310" />
              <mxPoint x="240" y="310" />
              <mxPoint x="240" y="530" />
            </Array>
            <mxPoint as="offset" />
          </mxGeometry>
        </mxCell>
        <mxCell id="PTadkcQ9bA5JcgTdEHjo-19" value="raddr1" style="edgeStyle=orthogonalEdgeStyle;rounded=0;orthogonalLoop=1;jettySize=auto;html=1;entryX=0.75;entryY=0;entryDx=0;entryDy=0;" parent="1" source="PTadkcQ9bA5JcgTdEHjo-2" target="PTadkcQ9bA5JcgTdEHjo-45" edge="1">
          <mxGeometry relative="1" as="geometry">
            <mxPoint x="500" y="250" as="sourcePoint" />
            <Array as="points">
              <mxPoint x="320" y="330" />
              <mxPoint x="320" y="330" />
            </Array>
            <mxPoint as="offset" />
          </mxGeometry>
        </mxCell>
        <mxCell id="PTadkcQ9bA5JcgTdEHjo-21" value="raddr" style="edgeStyle=orthogonalEdgeStyle;rounded=0;orthogonalLoop=1;jettySize=auto;html=1;" parent="1" target="PTadkcQ9bA5JcgTdEHjo-1" edge="1">
          <mxGeometry relative="1" as="geometry">
            <Array as="points">
              <mxPoint x="240" y="230" />
              <mxPoint x="240" y="210" />
            </Array>
            <mxPoint x="260" y="230.0344827586207" as="sourcePoint" />
            <mxPoint x="180" y="220" as="targetPoint" />
          </mxGeometry>
        </mxCell>
        <mxCell id="PTadkcQ9bA5JcgTdEHjo-2" value="DDP" style="rounded=0;whiteSpace=wrap;html=1;" parent="1" vertex="1">
          <mxGeometry x="260" y="200" width="80" height="120" as="geometry" />
        </mxCell>
        <mxCell id="PTadkcQ9bA5JcgTdEHjo-16" value="rdata1" style="edgeStyle=orthogonalEdgeStyle;rounded=0;orthogonalLoop=1;jettySize=auto;html=1;" parent="1" source="PTadkcQ9bA5JcgTdEHjo-45" target="PTadkcQ9bA5JcgTdEHjo-2" edge="1">
          <mxGeometry relative="1" as="geometry">
            <Array as="points">
              <mxPoint x="280" y="340" />
              <mxPoint x="280" y="340" />
            </Array>
            <mxPoint as="offset" />
          </mxGeometry>
        </mxCell>
        <mxCell id="PTadkcQ9bA5JcgTdEHjo-17" value="rdata2" style="edgeStyle=orthogonalEdgeStyle;rounded=0;orthogonalLoop=1;jettySize=auto;html=1;entryX=0;entryY=0.75;entryDx=0;entryDy=0;" parent="1" source="PTadkcQ9bA5JcgTdEHjo-46" target="PTadkcQ9bA5JcgTdEHjo-2" edge="1">
          <mxGeometry x="-0.7061" relative="1" as="geometry">
            <mxPoint x="420" y="320" as="targetPoint" />
            <Array as="points">
              <mxPoint x="220" y="550" />
              <mxPoint x="220" y="290" />
            </Array>
            <mxPoint as="offset" />
          </mxGeometry>
        </mxCell>
        <mxCell id="PTadkcQ9bA5JcgTdEHjo-29" value="A" style="edgeStyle=orthogonalEdgeStyle;rounded=0;orthogonalLoop=1;jettySize=auto;html=1;" parent="1" target="PTadkcQ9bA5JcgTdEHjo-4" edge="1">
          <mxGeometry relative="1" as="geometry">
            <mxPoint x="600" y="420" as="targetPoint" />
            <mxPoint x="510" y="410" as="sourcePoint" />
            <Array as="points">
              <mxPoint x="500" y="410" />
              <mxPoint x="500" y="410" />
            </Array>
          </mxGeometry>
        </mxCell>
        <mxCell id="PTadkcQ9bA5JcgTdEHjo-52" value="x y" style="edgeStyle=orthogonalEdgeStyle;rounded=0;orthogonalLoop=1;jettySize=auto;html=1;exitX=0;exitY=0.75;exitDx=0;exitDy=0;entryX=1;entryY=0.75;entryDx=0;entryDy=0;" parent="1" source="PTadkcQ9bA5JcgTdEHjo-4" target="PTadkcQ9bA5JcgTdEHjo-45" edge="1">
          <mxGeometry y="-10" relative="1" as="geometry">
            <mxPoint as="offset" />
          </mxGeometry>
        </mxCell>
        <mxCell id="PTadkcQ9bA5JcgTdEHjo-54" value="type dir" style="edgeStyle=orthogonalEdgeStyle;rounded=0;orthogonalLoop=1;jettySize=auto;html=1;exitX=0;exitY=1;exitDx=0;exitDy=0;entryX=1;entryY=1;entryDx=0;entryDy=0;" parent="1" source="PTadkcQ9bA5JcgTdEHjo-4" target="PTadkcQ9bA5JcgTdEHjo-45" edge="1">
          <mxGeometry y="-10" relative="1" as="geometry">
            <Array as="points">
              <mxPoint x="370" y="480" />
              <mxPoint x="370" y="480" />
            </Array>
            <mxPoint as="offset" />
          </mxGeometry>
        </mxCell>
        <mxCell id="PTadkcQ9bA5JcgTdEHjo-57" value="refresh" style="edgeStyle=orthogonalEdgeStyle;rounded=0;orthogonalLoop=1;jettySize=auto;html=1;exitX=0;exitY=0;exitDx=0;exitDy=0;entryX=1;entryY=0;entryDx=0;entryDy=0;" parent="1" source="PTadkcQ9bA5JcgTdEHjo-4" target="PTadkcQ9bA5JcgTdEHjo-45" edge="1">
          <mxGeometry y="-10" relative="1" as="geometry">
            <Array as="points">
              <mxPoint x="370" y="360" />
              <mxPoint x="370" y="360" />
            </Array>
            <mxPoint as="offset" />
          </mxGeometry>
        </mxCell>
        <mxCell id="PTadkcQ9bA5JcgTdEHjo-66" value="x1 y1 type1 next1" style="edgeStyle=orthogonalEdgeStyle;rounded=0;orthogonalLoop=1;jettySize=auto;html=1;entryX=1;entryY=0.75;entryDx=0;entryDy=0;" parent="1" source="PTadkcQ9bA5JcgTdEHjo-4" target="PTadkcQ9bA5JcgTdEHjo-2" edge="1">
          <mxGeometry x="0.3685" relative="1" as="geometry">
            <Array as="points">
              <mxPoint x="460" y="290" />
            </Array>
            <mxPoint as="offset" />
          </mxGeometry>
        </mxCell>
        <mxCell id="PTadkcQ9bA5JcgTdEHjo-4" value="PLAYER 1" style="rounded=0;whiteSpace=wrap;html=1;" parent="1" vertex="1">
          <mxGeometry x="400" y="360" width="80" height="120" as="geometry" />
        </mxCell>
        <mxCell id="PTadkcQ9bA5JcgTdEHjo-24" value="clk" style="edgeStyle=orthogonalEdgeStyle;rounded=0;orthogonalLoop=1;jettySize=auto;html=1;entryX=1;entryY=0.75;entryDx=0;entryDy=0;" parent="1" target="PTadkcQ9bA5JcgTdEHjo-5" edge="1">
          <mxGeometry relative="1" as="geometry">
            <mxPoint x="700" y="400.1428571428571" as="targetPoint" />
            <mxPoint x="670" y="530" as="sourcePoint" />
          </mxGeometry>
        </mxCell>
        <mxCell id="PTadkcQ9bA5JcgTdEHjo-27" value="ps2d" style="edgeStyle=orthogonalEdgeStyle;rounded=0;orthogonalLoop=1;jettySize=auto;html=1;entryX=1;entryY=0.25;entryDx=0;entryDy=0;" parent="1" target="PTadkcQ9bA5JcgTdEHjo-5" edge="1">
          <mxGeometry relative="1" as="geometry">
            <mxPoint x="650" y="440" as="targetPoint" />
            <mxPoint x="670" y="470" as="sourcePoint" />
            <Array as="points" />
          </mxGeometry>
        </mxCell>
        <mxCell id="PTadkcQ9bA5JcgTdEHjo-28" value="keyevent" style="edgeStyle=orthogonalEdgeStyle;rounded=0;orthogonalLoop=1;jettySize=auto;html=1;exitX=0;exitY=0.5;exitDx=0;exitDy=0;" parent="1" source="PTadkcQ9bA5JcgTdEHjo-5" edge="1">
          <mxGeometry x="1" y="-30" relative="1" as="geometry">
            <mxPoint x="510" y="500" as="targetPoint" />
            <Array as="points">
              <mxPoint x="510" y="500" />
            </Array>
            <mxPoint as="offset" />
          </mxGeometry>
        </mxCell>
        <mxCell id="PTadkcQ9bA5JcgTdEHjo-5" value="KEYBOARD" style="rounded=0;whiteSpace=wrap;html=1;" parent="1" vertex="1">
          <mxGeometry x="550" y="440" width="80" height="120" as="geometry" />
        </mxCell>
        <mxCell id="PTadkcQ9bA5JcgTdEHjo-7" value="hen" style="edgeStyle=orthogonalEdgeStyle;rounded=0;orthogonalLoop=1;jettySize=auto;html=1;exitX=0.25;exitY=1;exitDx=0;exitDy=0;entryX=0.25;entryY=0;entryDx=0;entryDy=0;" parent="1" source="PTadkcQ9bA5JcgTdEHjo-6" target="PTadkcQ9bA5JcgTdEHjo-2" edge="1">
          <mxGeometry relative="1" as="geometry" />
        </mxCell>
        <mxCell id="PTadkcQ9bA5JcgTdEHjo-8" value="ven" style="edgeStyle=orthogonalEdgeStyle;rounded=0;orthogonalLoop=1;jettySize=auto;html=1;exitX=0.75;exitY=1;exitDx=0;exitDy=0;entryX=0.75;entryY=0;entryDx=0;entryDy=0;" parent="1" source="PTadkcQ9bA5JcgTdEHjo-6" target="PTadkcQ9bA5JcgTdEHjo-2" edge="1">
          <mxGeometry relative="1" as="geometry" />
        </mxCell>
        <mxCell id="PTadkcQ9bA5JcgTdEHjo-9" value="hs" style="edgeStyle=orthogonalEdgeStyle;rounded=0;orthogonalLoop=1;jettySize=auto;html=1;exitX=1;exitY=0.25;exitDx=0;exitDy=0;" parent="1" source="PTadkcQ9bA5JcgTdEHjo-6" edge="1">
          <mxGeometry relative="1" as="geometry">
            <mxPoint x="630" y="100" as="targetPoint" />
          </mxGeometry>
        </mxCell>
        <mxCell id="PTadkcQ9bA5JcgTdEHjo-10" value="vs" style="edgeStyle=orthogonalEdgeStyle;rounded=0;orthogonalLoop=1;jettySize=auto;html=1;exitX=1;exitY=0.75;exitDx=0;exitDy=0;" parent="1" source="PTadkcQ9bA5JcgTdEHjo-6" edge="1">
          <mxGeometry relative="1" as="geometry">
            <mxPoint x="630" y="140" as="targetPoint" />
          </mxGeometry>
        </mxCell>
        <mxCell id="PTadkcQ9bA5JcgTdEHjo-11" value="pclk" style="edgeStyle=orthogonalEdgeStyle;rounded=0;orthogonalLoop=1;jettySize=auto;html=1;" parent="1" source="PTadkcQ9bA5JcgTdEHjo-38" target="PTadkcQ9bA5JcgTdEHjo-6" edge="1">
          <mxGeometry relative="1" as="geometry">
            <mxPoint x="220" y="100.19047619047615" as="targetPoint" />
            <mxPoint x="220" y="100" as="sourcePoint" />
          </mxGeometry>
        </mxCell>
        <mxCell id="PTadkcQ9bA5JcgTdEHjo-6" value="DST" style="rounded=0;whiteSpace=wrap;html=1;" parent="1" vertex="1">
          <mxGeometry x="260" y="80" width="80" height="80" as="geometry" />
        </mxCell>
        <mxCell id="PTadkcQ9bA5JcgTdEHjo-14" value="rstn" style="edgeStyle=orthogonalEdgeStyle;rounded=0;orthogonalLoop=1;jettySize=auto;html=1;" parent="1" target="PTadkcQ9bA5JcgTdEHjo-6" edge="1">
          <mxGeometry relative="1" as="geometry">
            <mxPoint x="380" y="180" as="targetPoint" />
            <mxPoint x="300" y="50" as="sourcePoint" />
          </mxGeometry>
        </mxCell>
        <mxCell id="PTadkcQ9bA5JcgTdEHjo-25" value="rstn" style="edgeStyle=orthogonalEdgeStyle;rounded=0;orthogonalLoop=1;jettySize=auto;html=1;entryX=0.5;entryY=1;entryDx=0;entryDy=0;" parent="1" target="PTadkcQ9bA5JcgTdEHjo-5" edge="1">
          <mxGeometry relative="1" as="geometry">
            <mxPoint x="590" y="590" as="sourcePoint" />
            <Array as="points">
              <mxPoint x="590" y="580" />
              <mxPoint x="590" y="580" />
            </Array>
          </mxGeometry>
        </mxCell>
        <mxCell id="PTadkcQ9bA5JcgTdEHjo-26" value="ps2c" style="edgeStyle=orthogonalEdgeStyle;rounded=0;orthogonalLoop=1;jettySize=auto;html=1;entryX=1;entryY=0.5;entryDx=0;entryDy=0;" parent="1" target="PTadkcQ9bA5JcgTdEHjo-5" edge="1">
          <mxGeometry relative="1" as="geometry">
            <mxPoint x="670" y="500" as="sourcePoint" />
            <Array as="points">
              <mxPoint x="650" y="500" />
              <mxPoint x="650" y="500" />
            </Array>
          </mxGeometry>
        </mxCell>
        <mxCell id="PTadkcQ9bA5JcgTdEHjo-30" value="S" style="edgeStyle=orthogonalEdgeStyle;rounded=0;orthogonalLoop=1;jettySize=auto;html=1;" parent="1" target="PTadkcQ9bA5JcgTdEHjo-4" edge="1">
          <mxGeometry relative="1" as="geometry">
            <mxPoint x="480" y="390" as="targetPoint" />
            <mxPoint x="510" y="430" as="sourcePoint" />
            <Array as="points">
              <mxPoint x="500" y="430" />
              <mxPoint x="500" y="430" />
            </Array>
          </mxGeometry>
        </mxCell>
        <mxCell id="PTadkcQ9bA5JcgTdEHjo-31" value="D" style="edgeStyle=orthogonalEdgeStyle;rounded=0;orthogonalLoop=1;jettySize=auto;html=1;" parent="1" target="PTadkcQ9bA5JcgTdEHjo-4" edge="1">
          <mxGeometry relative="1" as="geometry">
            <mxPoint x="480" y="390" as="targetPoint" />
            <mxPoint x="510" y="450" as="sourcePoint" />
            <Array as="points">
              <mxPoint x="500" y="450" />
              <mxPoint x="500" y="450" />
            </Array>
          </mxGeometry>
        </mxCell>
        <mxCell id="PTadkcQ9bA5JcgTdEHjo-33" value="U" style="edgeStyle=orthogonalEdgeStyle;rounded=0;orthogonalLoop=1;jettySize=auto;html=1;" parent="1" edge="1">
          <mxGeometry relative="1" as="geometry">
            <mxPoint x="480" y="549.9999999999999" as="targetPoint" />
            <mxPoint x="510" y="550" as="sourcePoint" />
            <Array as="points">
              <mxPoint x="500" y="550" />
              <mxPoint x="500" y="550" />
            </Array>
          </mxGeometry>
        </mxCell>
        <mxCell id="PTadkcQ9bA5JcgTdEHjo-34" value="L" style="edgeStyle=orthogonalEdgeStyle;rounded=0;orthogonalLoop=1;jettySize=auto;html=1;" parent="1" edge="1">
          <mxGeometry relative="1" as="geometry">
            <mxPoint x="480" y="610" as="targetPoint" />
            <mxPoint x="510" y="610" as="sourcePoint" />
            <Array as="points">
              <mxPoint x="500" y="610" />
              <mxPoint x="500" y="610" />
            </Array>
          </mxGeometry>
        </mxCell>
        <mxCell id="PTadkcQ9bA5JcgTdEHjo-35" value="D" style="edgeStyle=orthogonalEdgeStyle;rounded=0;orthogonalLoop=1;jettySize=auto;html=1;" parent="1" edge="1">
          <mxGeometry relative="1" as="geometry">
            <mxPoint x="480" y="590" as="targetPoint" />
            <mxPoint x="510" y="590" as="sourcePoint" />
            <Array as="points">
              <mxPoint x="500" y="590" />
              <mxPoint x="500" y="590" />
            </Array>
          </mxGeometry>
        </mxCell>
        <mxCell id="PTadkcQ9bA5JcgTdEHjo-36" value="W" style="edgeStyle=orthogonalEdgeStyle;rounded=0;orthogonalLoop=1;jettySize=auto;html=1;" parent="1" target="PTadkcQ9bA5JcgTdEHjo-4" edge="1">
          <mxGeometry relative="1" as="geometry">
            <mxPoint x="480" y="390" as="targetPoint" />
            <mxPoint x="510" y="390" as="sourcePoint" />
            <Array as="points">
              <mxPoint x="490" y="390" />
              <mxPoint x="490" y="390" />
            </Array>
          </mxGeometry>
        </mxCell>
        <mxCell id="PTadkcQ9bA5JcgTdEHjo-37" value="R" style="edgeStyle=orthogonalEdgeStyle;rounded=0;orthogonalLoop=1;jettySize=auto;html=1;" parent="1" edge="1">
          <mxGeometry relative="1" as="geometry">
            <mxPoint x="480" y="570" as="targetPoint" />
            <mxPoint x="510" y="570" as="sourcePoint" />
            <Array as="points">
              <mxPoint x="500" y="570" />
              <mxPoint x="500" y="570" />
            </Array>
          </mxGeometry>
        </mxCell>
        <mxCell id="PTadkcQ9bA5JcgTdEHjo-38" value="CLKWIZ&amp;nbsp;" style="rounded=0;whiteSpace=wrap;html=1;" parent="1" vertex="1">
          <mxGeometry x="120" y="80" width="80" height="80" as="geometry" />
        </mxCell>
        <mxCell id="PTadkcQ9bA5JcgTdEHjo-42" value="clk" style="edgeStyle=orthogonalEdgeStyle;rounded=0;orthogonalLoop=1;jettySize=auto;html=1;" parent="1" target="PTadkcQ9bA5JcgTdEHjo-38" edge="1">
          <mxGeometry relative="1" as="geometry">
            <mxPoint x="80" y="120" as="sourcePoint" />
          </mxGeometry>
        </mxCell>
        <mxCell id="PTadkcQ9bA5JcgTdEHjo-53" value="x y" style="edgeStyle=orthogonalEdgeStyle;rounded=0;orthogonalLoop=1;jettySize=auto;html=1;exitX=0;exitY=0.75;exitDx=0;exitDy=0;entryX=1;entryY=0.75;entryDx=0;entryDy=0;" parent="1" source="PTadkcQ9bA5JcgTdEHjo-43" target="PTadkcQ9bA5JcgTdEHjo-46" edge="1">
          <mxGeometry y="-10" relative="1" as="geometry">
            <mxPoint as="offset" />
          </mxGeometry>
        </mxCell>
        <mxCell id="PTadkcQ9bA5JcgTdEHjo-58" value="refresh" style="edgeStyle=orthogonalEdgeStyle;rounded=0;orthogonalLoop=1;jettySize=auto;html=1;" parent="1" source="PTadkcQ9bA5JcgTdEHjo-43" target="PTadkcQ9bA5JcgTdEHjo-46" edge="1">
          <mxGeometry y="-10" relative="1" as="geometry">
            <Array as="points">
              <mxPoint x="370" y="520" />
              <mxPoint x="370" y="520" />
            </Array>
            <mxPoint as="offset" />
          </mxGeometry>
        </mxCell>
        <mxCell id="PTadkcQ9bA5JcgTdEHjo-67" value="x2 y2 type2 next2" style="edgeStyle=orthogonalEdgeStyle;rounded=0;orthogonalLoop=1;jettySize=auto;html=1;entryX=1;entryY=0.25;entryDx=0;entryDy=0;" parent="1" source="PTadkcQ9bA5JcgTdEHjo-43" target="PTadkcQ9bA5JcgTdEHjo-2" edge="1">
          <mxGeometry x="0.7966" relative="1" as="geometry">
            <Array as="points">
              <mxPoint x="530" y="580" />
              <mxPoint x="530" y="230" />
            </Array>
            <mxPoint as="offset" />
          </mxGeometry>
        </mxCell>
        <mxCell id="PTadkcQ9bA5JcgTdEHjo-43" value="PLAYER 2" style="rounded=0;whiteSpace=wrap;html=1;" parent="1" vertex="1">
          <mxGeometry x="400" y="520" width="80" height="120" as="geometry" />
        </mxCell>
        <mxCell id="PTadkcQ9bA5JcgTdEHjo-44" value="" style="endArrow=none;html=1;rounded=0;" parent="1" edge="1">
          <mxGeometry width="50" height="50" relative="1" as="geometry">
            <mxPoint x="510" y="610" as="sourcePoint" />
            <mxPoint x="510" y="390" as="targetPoint" />
          </mxGeometry>
        </mxCell>
        <mxCell id="PTadkcQ9bA5JcgTdEHjo-47" value="el er eu ed" style="edgeStyle=orthogonalEdgeStyle;rounded=0;orthogonalLoop=1;jettySize=auto;html=1;exitX=1;exitY=0.25;exitDx=0;exitDy=0;entryX=0;entryY=0.25;entryDx=0;entryDy=0;" parent="1" source="PTadkcQ9bA5JcgTdEHjo-45" target="PTadkcQ9bA5JcgTdEHjo-4" edge="1">
          <mxGeometry y="10" relative="1" as="geometry">
            <mxPoint as="offset" />
          </mxGeometry>
        </mxCell>
        <mxCell id="PTadkcQ9bA5JcgTdEHjo-49" value="edrop" style="edgeStyle=orthogonalEdgeStyle;rounded=0;orthogonalLoop=1;jettySize=auto;html=1;exitX=1;exitY=0.5;exitDx=0;exitDy=0;entryX=0;entryY=0.5;entryDx=0;entryDy=0;" parent="1" source="PTadkcQ9bA5JcgTdEHjo-45" target="PTadkcQ9bA5JcgTdEHjo-4" edge="1">
          <mxGeometry y="10" relative="1" as="geometry">
            <mxPoint as="offset" />
          </mxGeometry>
        </mxCell>
        <mxCell id="PTadkcQ9bA5JcgTdEHjo-73" value="score1" style="edgeStyle=orthogonalEdgeStyle;shape=connector;rounded=0;orthogonalLoop=1;jettySize=auto;html=1;exitX=0;exitY=0.5;exitDx=0;exitDy=0;labelBackgroundColor=default;strokeColor=default;fontFamily=Helvetica;fontSize=11;fontColor=default;endArrow=classic;entryX=-0.002;entryY=0.835;entryDx=0;entryDy=0;entryPerimeter=0;" parent="1" source="PTadkcQ9bA5JcgTdEHjo-45" edge="1" target="PTadkcQ9bA5JcgTdEHjo-2">
          <mxGeometry relative="1" as="geometry">
            <mxPoint x="200" y="420" as="targetPoint" />
            <Array as="points">
              <mxPoint x="230" y="420" />
              <mxPoint x="230" y="300" />
            </Array>
          </mxGeometry>
        </mxCell>
        <mxCell id="PTadkcQ9bA5JcgTdEHjo-45" value="RAM 1" style="rounded=0;whiteSpace=wrap;html=1;" parent="1" vertex="1">
          <mxGeometry x="260" y="360" width="80" height="120" as="geometry" />
        </mxCell>
        <mxCell id="PTadkcQ9bA5JcgTdEHjo-74" value="score2" style="edgeStyle=orthogonalEdgeStyle;shape=connector;rounded=0;orthogonalLoop=1;jettySize=auto;html=1;exitX=0;exitY=0.5;exitDx=0;exitDy=0;labelBackgroundColor=default;strokeColor=default;fontFamily=Helvetica;fontSize=11;fontColor=default;endArrow=classic;entryX=0;entryY=1;entryDx=0;entryDy=0;" parent="1" source="PTadkcQ9bA5JcgTdEHjo-46" edge="1" target="PTadkcQ9bA5JcgTdEHjo-2">
          <mxGeometry relative="1" as="geometry">
            <mxPoint x="200" y="580" as="targetPoint" />
            <Array as="points">
              <mxPoint x="210" y="580" />
              <mxPoint x="210" y="320" />
            </Array>
          </mxGeometry>
        </mxCell>
        <mxCell id="PTadkcQ9bA5JcgTdEHjo-46" value="RAM 2" style="rounded=0;whiteSpace=wrap;html=1;" parent="1" vertex="1">
          <mxGeometry x="260" y="520" width="80" height="120" as="geometry" />
        </mxCell>
        <mxCell id="PTadkcQ9bA5JcgTdEHjo-50" value="el er eu ed" style="edgeStyle=orthogonalEdgeStyle;rounded=0;orthogonalLoop=1;jettySize=auto;html=1;" parent="1" source="PTadkcQ9bA5JcgTdEHjo-46" target="PTadkcQ9bA5JcgTdEHjo-43" edge="1">
          <mxGeometry y="10" relative="1" as="geometry">
            <mxPoint x="340" y="390" as="sourcePoint" />
            <mxPoint x="400" y="390" as="targetPoint" />
            <Array as="points">
              <mxPoint x="370" y="550" />
              <mxPoint x="370" y="550" />
            </Array>
            <mxPoint as="offset" />
          </mxGeometry>
        </mxCell>
        <mxCell id="PTadkcQ9bA5JcgTdEHjo-51" value="edrop" style="edgeStyle=orthogonalEdgeStyle;rounded=0;orthogonalLoop=1;jettySize=auto;html=1;" parent="1" source="PTadkcQ9bA5JcgTdEHjo-46" target="PTadkcQ9bA5JcgTdEHjo-43" edge="1">
          <mxGeometry y="10" relative="1" as="geometry">
            <mxPoint x="340" y="579.71" as="sourcePoint" />
            <mxPoint x="400" y="579.71" as="targetPoint" />
            <mxPoint as="offset" />
          </mxGeometry>
        </mxCell>
        <mxCell id="PTadkcQ9bA5JcgTdEHjo-55" value="type dir" style="edgeStyle=orthogonalEdgeStyle;rounded=0;orthogonalLoop=1;jettySize=auto;html=1;exitX=0;exitY=1;exitDx=0;exitDy=0;" parent="1" source="PTadkcQ9bA5JcgTdEHjo-43" edge="1">
          <mxGeometry y="-10" relative="1" as="geometry">
            <mxPoint x="400" y="480" as="sourcePoint" />
            <mxPoint x="340" y="640" as="targetPoint" />
            <Array as="points">
              <mxPoint x="390" y="640" />
              <mxPoint x="390" y="640" />
            </Array>
            <mxPoint as="offset" />
          </mxGeometry>
        </mxCell>
        <mxCell id="PTadkcQ9bA5JcgTdEHjo-60" value="clk" style="edgeStyle=orthogonalEdgeStyle;rounded=0;orthogonalLoop=1;jettySize=auto;html=1;" parent="1" target="PTadkcQ9bA5JcgTdEHjo-4" edge="1">
          <mxGeometry relative="1" as="geometry">
            <mxPoint x="440" y="320" as="sourcePoint" />
          </mxGeometry>
        </mxCell>
        <mxCell id="PTadkcQ9bA5JcgTdEHjo-62" value="rstn" style="edgeStyle=orthogonalEdgeStyle;rounded=0;orthogonalLoop=1;jettySize=auto;html=1;entryX=0.75;entryY=0;entryDx=0;entryDy=0;" parent="1" edge="1">
          <mxGeometry relative="1" as="geometry">
            <mxPoint x="420" y="320" as="sourcePoint" />
            <mxPoint x="420" y="360" as="targetPoint" />
          </mxGeometry>
        </mxCell>
        <mxCell id="PTadkcQ9bA5JcgTdEHjo-63" value="clk" style="edgeStyle=orthogonalEdgeStyle;rounded=0;orthogonalLoop=1;jettySize=auto;html=1;entryX=0.75;entryY=1;entryDx=0;entryDy=0;" parent="1" target="PTadkcQ9bA5JcgTdEHjo-43" edge="1">
          <mxGeometry relative="1" as="geometry">
            <mxPoint x="460" y="680" as="sourcePoint" />
            <mxPoint x="459.76" y="690" as="targetPoint" />
          </mxGeometry>
        </mxCell>
        <mxCell id="PTadkcQ9bA5JcgTdEHjo-64" value="rstn" style="edgeStyle=orthogonalEdgeStyle;rounded=0;orthogonalLoop=1;jettySize=auto;html=1;entryX=0.25;entryY=1;entryDx=0;entryDy=0;" parent="1" target="PTadkcQ9bA5JcgTdEHjo-43" edge="1">
          <mxGeometry relative="1" as="geometry">
            <mxPoint x="420" y="680" as="sourcePoint" />
            <mxPoint x="419.76" y="690" as="targetPoint" />
          </mxGeometry>
        </mxCell>
        <mxCell id="PTadkcQ9bA5JcgTdEHjo-68" value="clk" style="edgeStyle=orthogonalEdgeStyle;rounded=0;orthogonalLoop=1;jettySize=auto;html=1;entryX=0.457;entryY=1.011;entryDx=0;entryDy=0;entryPerimeter=0;" parent="1" target="PTadkcQ9bA5JcgTdEHjo-45" edge="1">
          <mxGeometry relative="1" as="geometry">
            <mxPoint x="297" y="510" as="sourcePoint" />
            <Array as="points">
              <mxPoint x="297" y="500" />
            </Array>
          </mxGeometry>
        </mxCell>
        <mxCell id="PTadkcQ9bA5JcgTdEHjo-69" value="clk" style="edgeStyle=orthogonalEdgeStyle;rounded=0;orthogonalLoop=1;jettySize=auto;html=1;" parent="1" target="PTadkcQ9bA5JcgTdEHjo-46" edge="1">
          <mxGeometry relative="1" as="geometry">
            <mxPoint x="300" y="680" as="sourcePoint" />
            <mxPoint x="299.7800000000001" y="640" as="targetPoint" />
            <Array as="points" />
          </mxGeometry>
        </mxCell>
        <mxCell id="PTadkcQ9bA5JcgTdEHjo-70" value="ROM" style="rounded=0;whiteSpace=wrap;html=1;" parent="1" vertex="1">
          <mxGeometry x="160" y="240" width="40" height="40" as="geometry" />
        </mxCell>
        <mxCell id="PTadkcQ9bA5JcgTdEHjo-71" value="rdata" style="edgeStyle=orthogonalEdgeStyle;rounded=0;orthogonalLoop=1;jettySize=auto;html=1;" parent="1" edge="1">
          <mxGeometry x="-0.2491" relative="1" as="geometry">
            <mxPoint x="200" y="259.9985714285714" as="sourcePoint" />
            <mxPoint x="260" y="279.9985714285714" as="targetPoint" />
            <Array as="points">
              <mxPoint x="220" y="259.97" />
              <mxPoint x="220" y="279.97" />
            </Array>
            <mxPoint as="offset" />
          </mxGeometry>
        </mxCell>
        <mxCell id="PTadkcQ9bA5JcgTdEHjo-72" value="raddr" style="edgeStyle=orthogonalEdgeStyle;rounded=0;orthogonalLoop=1;jettySize=auto;html=1;" parent="1" edge="1">
          <mxGeometry relative="1" as="geometry">
            <mxPoint x="260" y="269.9985714285714" as="sourcePoint" />
            <mxPoint x="200" y="249.99857142857135" as="targetPoint" />
            <Array as="points">
              <mxPoint x="240" y="269.97" />
              <mxPoint x="240" y="249.97" />
            </Array>
          </mxGeometry>
        </mxCell>
        <mxCell id="qdQGaBaW670SIYNAz18d-1" value="ROM" style="rounded=0;whiteSpace=wrap;html=1;" vertex="1" parent="1">
          <mxGeometry x="120" y="200" width="40" height="40" as="geometry" />
        </mxCell>
        <mxCell id="qdQGaBaW670SIYNAz18d-2" value="ROM" style="rounded=0;whiteSpace=wrap;html=1;" vertex="1" parent="1">
          <mxGeometry x="120" y="240" width="40" height="40" as="geometry" />
        </mxCell>
      </root>
    </mxGraphModel>
  </diagram>
</mxfile>
